<?xml version="1.0" standalone="no"?>
<!DOCTYPE svg PUBLIC "-//W3C//DTD SVG 20010904//EN"
 "http://www.w3.org/TR/2001/REC-SVG-20010904/DTD/svg10.dtd">
<svg version="1.0" xmlns="http://www.w3.org/2000/svg"
 width="1280.000000pt" height="640.000000pt" viewBox="0 0 1280.000000 640.000000"
 preserveAspectRatio="xMidYMid meet">
<metadata>
Created by potrace 1.15, written by Peter Selinger 2001-2017
</metadata>
<g transform="translate(0.000000,640.000000) scale(0.100000,-0.100000)"
fill="#FFBB4E" stroke="none">
<path d="M8660 6345 c0 -9 -9 -15 -24 -15 -58 0 -39 -35 84 -155 167 -164 272
-309 383 -531 98 -198 129 -291 252 -764 43 -162 88 -329 100 -370 38 -121 45
-110 -75 -114 -99 -2 -113 -6 -235 -53 -183 -72 -201 -80 -385 -178 -91 -48
-208 -118 -260 -155 -52 -37 -134 -91 -181 -118 -47 -28 -110 -70 -139 -94
-190 -153 -212 -167 -310 -197 -140 -44 -164 -49 -285 -62 -60 -6 -114 -16
-120 -21 -16 -15 22 -36 127 -69 217 -67 334 -149 378 -265 29 -79 26 -143
-16 -275 -37 -120 -150 -554 -163 -627 -4 -23 -18 -54 -31 -67 -13 -14 -21
-28 -17 -31 3 -4 -4 -27 -17 -53 -13 -25 -26 -59 -30 -74 -6 -25 -3 -29 28
-42 19 -8 54 -17 78 -21 80 -12 124 -77 138 -207 5 -45 17 -118 27 -162 27
-126 22 -233 -15 -338 -17 -48 -44 -111 -59 -139 -31 -58 -138 -176 -177 -197
-70 -38 -5 -23 207 49 333 112 634 245 717 317 151 132 501 370 578 394 15 4
56 12 92 18 36 5 78 13 93 17 25 6 34 0 78 -47 27 -30 86 -100 130 -157 54
-68 87 -102 100 -102 16 0 19 -5 14 -20 -4 -14 3 -36 24 -68 16 -26 49 -88 72
-137 52 -112 221 -392 272 -450 38 -44 120 -85 170 -85 34 0 209 -122 299
-208 87 -83 197 -239 251 -354 30 -66 48 -81 63 -56 5 7 8 125 9 263 l1 250
31 95 c17 52 41 127 52 165 45 156 143 208 286 154 31 -12 58 -19 60 -17 4 3
-18 48 -85 172 -87 164 -124 353 -125 646 l0 195 38 82 c20 45 37 86 37 92 0
18 47 31 129 38 82 6 62 10 423 -87 220 -58 187 -59 309 9 99 55 321 99 554
110 149 7 205 18 205 41 0 5 -7 10 -15 12 -7 2 -57 50 -110 107 -85 91 -104
119 -155 225 -32 67 -72 156 -88 198 -17 43 -44 94 -61 115 -41 50 -39 78 9
137 22 26 40 53 40 59 0 11 -282 295 -521 523 -162 155 -184 195 -184 334 0
115 13 145 94 227 50 50 151 125 184 136 9 3 9 10 0 30 -16 34 -55 43 -213 51
-210 10 -365 34 -460 71 -214 83 -446 138 -740 176 -179 23 -211 32 -256 71
l-35 31 -72 -17 c-88 -20 -276 -106 -416 -189 -75 -45 -119 -80 -159 -124 -31
-35 -58 -63 -62 -63 -12 0 -69 108 -89 170 -11 36 -68 234 -125 441 -121 434
-152 525 -246 706 -88 169 -133 239 -250 395 -53 70 -109 151 -125 180 -15 29
-35 61 -43 71 -19 21 -42 22 -42 2z m800 -2079 c0 -2 -8 -10 -17 -17 -16 -13
-17 -12 -4 4 13 16 21 21 21 13z"/>
<path d="M2932 5918 c-5 -7 -17 -60 -27 -118 -13 -86 -26 -124 -66 -207 -65
-132 -139 -243 -177 -265 -51 -30 -219 -210 -272 -293 -29 -44 -87 -116 -130
-160 -86 -89 -118 -142 -126 -212 -3 -27 -14 -71 -25 -100 -30 -85 -33 -143
-14 -269 19 -116 19 -116 -4 -233 -12 -64 -25 -156 -29 -206 -8 -109 -7 -109
-137 -26 -144 93 -384 230 -623 355 -607 318 -885 526 -1159 869 l-102 128
-19 -43 -19 -43 97 -105 c326 -351 593 -543 1217 -874 101 -53 213 -115 250
-137 129 -79 337 -224 391 -274 l54 -49 -21 -17 c-12 -10 -43 -21 -69 -24 -72
-10 -122 -25 -172 -49 -25 -12 -74 -30 -110 -40 -36 -10 -83 -27 -104 -38 -52
-27 -143 -114 -166 -159 -31 -60 -98 -318 -110 -424 -7 -62 -19 -115 -32 -140
-12 -22 -22 -56 -23 -75 -20 -276 -51 -388 -135 -484 -37 -41 -38 -70 -4 -92
24 -16 26 -16 52 5 63 50 82 55 164 38 84 -17 208 -71 277 -120 49 -35 93 -78
283 -278 139 -146 149 -159 243 -299 38 -57 113 -145 186 -220 132 -135 293
-323 357 -417 52 -77 74 -121 126 -255 24 -62 55 -138 69 -167 l24 -55 7 36
c4 20 11 94 16 165 5 70 12 139 16 153 15 64 52 168 110 316 35 89 71 197 80
240 8 43 22 91 30 105 7 14 19 59 25 100 13 82 54 168 124 259 23 30 61 84 85
120 24 36 50 70 59 75 22 14 231 101 313 130 102 36 234 55 453 66 238 12 320
4 490 -46 201 -60 250 -57 479 25 69 25 111 33 185 37 94 5 118 1 231 -33 84
-25 119 -29 125 -12 5 13 -96 221 -135 278 -39 56 -62 117 -101 262 -46 175
-79 245 -154 339 -29 36 -71 93 -92 125 -105 163 -188 243 -328 319 -129 70
-157 97 -252 238 -110 163 -129 203 -141 294 -18 127 36 309 121 408 38 45 85
110 189 265 39 58 102 148 138 200 37 52 84 127 103 165 20 39 44 82 54 97 18
26 132 112 230 173 38 24 49 36 51 61 3 29 1 32 -35 37 -21 4 -103 11 -183 18
-183 14 -275 31 -338 63 -27 14 -83 32 -123 41 -77 15 -225 82 -363 162 -99
58 -132 60 -239 10 -108 -50 -196 -111 -305 -210 -54 -50 -120 -98 -159 -118
-60 -30 -74 -34 -140 -32 -89 3 -128 18 -188 74 -51 47 -182 236 -214 309 -19
44 -51 180 -51 219 0 41 -63 69 -88 39z"/>
</g>
</svg>
