<?xml version="1.0" standalone="no"?>
<!DOCTYPE svg PUBLIC "-//W3C//DTD SVG 20010904//EN"
 "http://www.w3.org/TR/2001/REC-SVG-20010904/DTD/svg10.dtd">
<svg version="1.0" xmlns="http://www.w3.org/2000/svg"
 width="640.000000pt" height="1280.000000pt" viewBox="0 0 640.000000 1280.000000"
 preserveAspectRatio="xMidYMid meet">
<metadata>
Created by potrace 1.15, written by Peter Selinger 2001-2017
</metadata>
<g transform="translate(0.000000,1280.000000) scale(0.100000,-0.100000)"
fill="#A5A5A5" stroke="none">
<path d="M3200 12745 c-63 -315 -175 -631 -334 -940 -146 -284 -290 -513 -621
-985 -342 -488 -519 -768 -655 -1035 -81 -159 -277 -596 -405 -905 -407 -975
-560 -1643 -606 -2642 -28 -616 71 -1068 366 -1673 144 -294 275 -518 619
-1054 396 -617 516 -818 667 -1124 202 -409 215 -465 284 -1287 57 -670 121
-945 249 -1069 l34 -33 7 23 c14 42 8 291 -9 394 -9 55 -43 210 -76 345 -91
377 -94 396 -94 630 0 121 5 236 12 280 68 402 246 693 647 1060 77 70 257
228 400 351 602 516 935 835 1208 1160 386 458 660 978 792 1501 169 666 178
1427 25 2183 -117 576 -337 1190 -656 1826 -183 367 -265 469 -620 774 -307
265 -409 385 -513 606 -74 157 -120 291 -229 669 -56 190 -115 385 -132 433
-81 230 -163 377 -271 491 l-77 80 -12 -59z"/>
</g>
</svg>
