<?xml version="1.0" standalone="no"?>
<!DOCTYPE svg PUBLIC "-//W3C//DTD SVG 20010904//EN"
 "http://www.w3.org/TR/2001/REC-SVG-20010904/DTD/svg10.dtd">
<svg version="1.0" xmlns="http://www.w3.org/2000/svg"
 width="1280.000000pt" height="1121.000000pt" viewBox="0 0 1280.000000 1121.000000"
 preserveAspectRatio="xMidYMid meet">
<metadata>
Created by potrace 1.15, written by Peter Selinger 2001-2017
</metadata>
<g transform="translate(0.000000,1121.000000) scale(0.100000,-0.100000)"
fill="#FC7D45" stroke="none">
<path d="M5995 10994 l-108 -206 -20 -234 c-12 -129 -25 -234 -29 -234 -5 0
-54 29 -109 65 -56 36 -103 64 -105 62 -3 -2 -9 -184 -15 -403 -6 -219 -14
-409 -17 -421 -7 -21 -15 -17 -128 70 -111 84 -137 111 -284 290 -142 174
-164 196 -179 185 -9 -7 -71 -59 -139 -115 -68 -57 -128 -103 -133 -103 -6 0
-96 61 -200 136 -105 75 -192 134 -194 132 -2 -2 25 -138 61 -303 58 -274 70
-314 130 -463 37 -89 65 -164 63 -166 -2 -2 -84 -21 -183 -42 -148 -32 -175
-40 -155 -48 357 -149 516 -313 544 -563 l7 -62 -43 -46 c-85 -92 -219 -137
-467 -156 -84 -7 -149 -15 -145 -19 4 -3 38 -30 75 -59 55 -43 69 -60 83 -101
16 -48 144 -250 202 -318 l28 -33 95 32 c89 30 104 33 235 33 165 1 237 -17
363 -93 l77 -46 -4 -197 -4 -198 26 0 c121 0 401 103 636 235 74 41 137 72
140 69 13 -13 4 -314 -13 -419 -54 -338 -181 -687 -353 -970 -63 -103 -177
-256 -222 -299 -39 -37 -39 -44 1 -48 28 -2 34 -8 38 -32 l5 -30 59 65 c170
186 347 533 439 859 72 251 100 441 101 677 1 101 2 183 3 183 0 0 34 -19 75
-42 241 -137 538 -248 663 -248 l27 0 -7 193 c-9 222 -18 200 106 266 179 96
379 107 597 31 35 -12 67 -18 71 -14 70 81 204 287 222 342 15 47 29 64 106
122 l61 47 -146 11 c-250 18 -374 58 -464 148 -55 55 -59 80 -33 193 42 175
179 321 405 430 44 22 94 44 112 51 l33 12 -25 8 c-14 5 -94 23 -177 41 -94
19 -153 37 -153 44 0 6 27 77 61 156 55 131 66 173 128 457 37 171 65 312 63
312 -3 0 -90 -61 -194 -135 -104 -74 -194 -135 -199 -135 -6 0 -74 52 -151
116 -130 109 -140 116 -153 98 -7 -11 -80 -100 -162 -199 -132 -160 -162 -190
-272 -274 -67 -51 -124 -91 -126 -90 -1 2 -8 193 -15 424 -7 231 -14 422 -15
423 -2 2 -52 -28 -112 -66 -59 -38 -109 -69 -110 -68 0 0 -11 107 -22 237
l-22 236 -107 206 c-59 114 -110 207 -113 207 -3 0 -54 -93 -114 -206z"/>
<path d="M10358 11021 c-246 -364 -541 -585 -820 -616 l-57 -6 -5 -42 c-3 -23
-10 -154 -16 -292 -5 -137 -16 -286 -24 -330 -23 -131 -72 -240 -135 -299
l-30 -29 -41 37 c-22 20 -105 79 -184 131 -150 99 -224 167 -273 255 -15 28
-30 50 -34 50 -3 0 -24 -34 -48 -76 l-43 -75 -31 26 c-110 89 -175 114 -335
126 -68 6 -126 9 -128 6 -2 -2 12 -32 31 -68 79 -147 102 -262 120 -604 14
-254 14 -271 -3 -283 -9 -8 -69 -40 -132 -72 -63 -33 -121 -63 -128 -68 -10
-6 45 -38 182 -105 129 -63 230 -120 295 -167 l98 -72 7 -141 8 -140 -79 -79
c-83 -85 -196 -165 -305 -219 -38 -18 -68 -36 -68 -40 0 -3 53 -9 118 -12 65
-3 131 -11 147 -17 17 -6 73 -20 125 -31 124 -26 193 -58 260 -123 66 -64 93
-79 308 -162 91 -35 167 -66 169 -68 3 -3 8 -61 13 -131 4 -69 10 -128 13
-131 11 -11 161 16 272 50 147 44 299 106 478 193 82 40 152 73 155 73 4 0 8
-71 8 -158 4 -429 141 -915 362 -1282 54 -89 168 -244 210 -283 l29 -28 6 30
c6 30 17 36 60 33 11 -1 -6 25 -52 78 -263 304 -468 763 -541 1210 -21 133
-35 369 -23 387 7 10 34 -1 109 -43 291 -163 561 -272 741 -299 l41 -6 6 93
c3 51 7 111 9 133 l2 40 135 48 c241 85 291 107 322 143 50 56 138 91 248 99
52 4 114 11 136 17 31 7 62 6 125 -6 45 -9 84 -14 86 -12 2 2 -19 18 -46 35
-65 42 -119 102 -188 209 -31 48 -74 110 -95 138 -42 56 -45 79 -31 252 l6 82
96 65 c85 58 113 86 236 231 77 91 141 170 143 175 2 5 -40 9 -93 9 -87 0 -96
2 -91 17 4 9 11 107 16 217 12 259 34 353 115 486 19 32 35 60 35 64 0 3 -14
6 -31 6 -17 0 -70 16 -118 35 -158 63 -223 64 -305 1 -29 -22 -41 -25 -83 -20
-45 6 -50 4 -60 -19 -19 -40 -83 -107 -122 -126 -20 -10 -79 -28 -131 -40
-117 -28 -194 -57 -231 -88 -37 -31 -55 -22 -107 57 -76 114 -99 221 -112 535
-6 132 -13 272 -16 311 l-5 71 -67 11 c-197 33 -303 149 -451 493 -26 63 -62
140 -78 173 l-30 59 -55 -82z"/>
<path d="M1972 10728 c-63 -94 -162 -265 -162 -281 0 -7 9 -36 20 -65 29 -75
26 -121 -10 -170 -34 -47 -95 -92 -125 -92 -11 0 -44 11 -73 25 -30 14 -58 25
-63 25 -4 0 3 -24 16 -52 29 -62 32 -130 9 -188 -14 -36 -19 -39 -43 -33 -39
9 -114 48 -133 70 -25 28 -48 88 -48 126 l0 34 -42 -9 c-24 -4 -70 -11 -104
-14 -55 -6 -63 -4 -84 17 -18 19 -22 20 -16 6 3 -10 9 -55 12 -100 6 -87 -11
-202 -40 -272 -14 -32 -19 -36 -41 -31 -13 3 -51 9 -84 12 -49 6 -67 3 -105
-16 -41 -19 -46 -26 -46 -54 0 -50 46 -132 98 -173 26 -20 51 -40 55 -44 17
-14 -44 -118 -99 -168 l-55 -50 15 -51 c24 -81 75 -167 134 -226 36 -36 50
-55 41 -59 -8 -2 -79 -21 -159 -41 -223 -55 -415 -58 -544 -8 -10 4 2 -14 28
-39 75 -75 146 -203 146 -263 0 -9 -34 -55 -76 -102 l-75 -86 81 -18 c98 -21
165 -56 231 -120 37 -37 49 -56 49 -79 0 -44 -23 -91 -59 -122 -22 -18 -28
-29 -19 -32 243 -85 327 -133 498 -286 l76 -67 39 30 c80 61 233 157 324 203
99 49 265 109 351 125 28 5 65 19 81 31 l29 20 0 -123 c0 -545 236 -1208 549
-1548 l60 -65 1 31 c0 32 14 44 51 44 15 0 3 19 -52 83 -245 282 -451 742
-530 1176 -20 111 -38 401 -24 401 4 0 22 -9 39 -19 17 -11 63 -27 101 -35
208 -48 413 -147 629 -305 l69 -50 68 64 c127 119 265 204 419 259 41 15 82
29 90 32 10 4 6 10 -15 24 -39 26 -65 75 -65 124 0 34 7 46 48 86 62 59 152
105 241 121 l70 12 -75 87 c-56 66 -74 94 -74 117 0 47 66 167 127 233 l55 60
-44 -16 c-57 -22 -268 -30 -351 -15 -61 12 -301 68 -323 76 -6 2 16 32 50 67
64 65 106 138 128 221 l12 47 -56 58 c-32 31 -67 78 -78 105 l-21 47 56 52
c63 58 95 111 98 166 2 35 -1 39 -43 60 -38 20 -54 23 -105 18 -33 -4 -72 -9
-87 -12 -26 -6 -28 -3 -50 67 -19 62 -23 96 -23 206 0 124 -1 131 -17 116 -18
-16 -74 -15 -168 6 -25 5 -48 7 -52 5 -5 -3 -8 -23 -8 -45 0 -47 -11 -72 -53
-117 -26 -27 -117 -72 -146 -72 -5 0 -16 25 -26 55 -19 62 -16 98 16 172 11
25 18 48 15 50 -2 2 -31 -7 -65 -21 -89 -38 -105 -35 -172 32 -74 74 -81 105
-46 203 l24 69 -50 88 c-67 118 -160 262 -169 262 -4 0 -29 -33 -56 -72z"/>
<path d="M6447 5232 l-107 -207 -21 -235 c-12 -129 -23 -236 -24 -238 -1 -2
-51 29 -111 67 -59 39 -109 70 -110 68 -1 -1 -8 -191 -15 -422 -7 -231 -13
-422 -15 -424 -2 -2 -58 37 -124 86 -110 83 -134 107 -286 291 l-166 201 -143
-120 -144 -119 -197 140 c-108 78 -197 140 -199 138 -2 -2 26 -138 61 -303 59
-274 70 -314 131 -463 36 -89 64 -165 61 -167 -2 -3 -82 -22 -176 -42 -95 -20
-172 -39 -172 -43 0 -3 32 -17 71 -33 166 -64 346 -202 416 -319 35 -58 73
-188 73 -250 0 -32 -7 -46 -45 -84 -89 -88 -242 -136 -488 -151 l-127 -8 74
-58 c59 -46 77 -67 92 -105 23 -62 81 -157 160 -266 55 -74 69 -87 87 -83 12
3 60 18 107 33 73 23 103 27 210 28 111 1 134 -2 210 -27 47 -15 117 -47 155
-70 l70 -43 -4 -197 -3 -197 40 0 c52 0 209 41 308 80 86 34 298 139 383 189
29 18 56 29 60 26 12 -13 3 -253 -14 -371 -67 -460 -304 -987 -573 -1276 l-45
-48 30 0 c34 0 53 -16 53 -44 0 -66 221 237 328 449 95 192 182 448 226 670
38 196 48 285 50 461 l1 161 50 -30 c80 -47 282 -146 374 -183 105 -43 259
-84 314 -84 l40 0 -7 194 -7 194 63 39 c200 125 391 145 630 67 43 -14 82 -23
88 -19 13 8 141 188 177 250 16 28 38 71 48 97 14 39 32 59 93 105 l75 58
-129 8 c-71 4 -172 17 -224 27 -178 36 -310 126 -310 210 0 56 37 188 67 239
36 63 135 165 207 214 66 45 216 122 259 132 15 4 27 10 27 14 0 4 -48 18
-107 30 -197 41 -243 53 -243 62 0 5 28 75 62 156 56 135 68 176 129 458 37
171 66 311 64 313 -1 1 -91 -61 -199 -138 l-196 -140 -144 119 -144 120 -162
-197 c-147 -180 -172 -205 -283 -289 -67 -51 -125 -93 -128 -93 -4 0 -10 136
-14 303 -4 166 -10 357 -14 425 l-6 123 -109 -71 c-60 -39 -109 -70 -111 -68
-1 2 -11 109 -23 238 l-21 235 -108 207 c-59 114 -110 208 -113 208 -3 0 -53
-94 -113 -208z"/>
<path d="M2186 5119 c-114 -189 -154 -245 -244 -341 -115 -122 -243 -193 -368
-205 -36 -3 -67 -10 -71 -16 -3 -5 -9 -111 -14 -236 -14 -373 -31 -492 -85
-610 -26 -58 -89 -141 -106 -141 -5 0 -29 17 -53 38 -24 20 -101 73 -171 117
-145 89 -238 175 -278 253 -14 28 -28 52 -31 52 -2 0 -25 -36 -50 -80 l-46
-79 -52 42 c-95 77 -192 107 -351 107 l-92 0 48 -96 c46 -95 80 -213 92 -324
4 -30 11 -152 16 -270 6 -118 12 -224 13 -234 2 -16 -13 -23 -90 -45 -51 -14
-93 -28 -93 -31 0 -18 301 -301 380 -358 l95 -68 7 -55 c3 -30 6 -95 7 -146
l1 -91 -47 -43 c-84 -74 -212 -150 -397 -237 -100 -46 -185 -88 -190 -92 -5
-6 5 -7 25 -5 107 14 397 25 419 17 14 -5 74 -20 135 -31 134 -27 199 -57 269
-125 58 -56 80 -66 356 -168 l115 -43 8 -130 c4 -71 10 -131 13 -134 10 -10
160 21 266 55 146 47 305 115 501 213 l157 79 0 -33 c0 -18 -5 -79 -11 -136
-36 -356 -163 -731 -359 -1063 -57 -97 -182 -265 -229 -310 -39 -37 -39 -44 1
-48 28 -2 34 -8 38 -32 l5 -30 58 65 c173 189 347 528 442 860 58 201 105 496
105 660 l0 57 109 -58 c255 -137 516 -241 682 -271 93 -17 99 -13 99 63 0 35
3 93 6 130 7 67 7 68 43 79 72 24 323 119 354 135 18 9 55 38 83 64 61 58 111
85 195 104 263 60 237 58 449 43 107 -7 197 -12 198 -11 2 1 -89 48 -202 103
-227 110 -317 165 -389 238 l-47 49 6 131 c4 73 10 136 13 141 3 5 42 35 86
67 71 51 385 350 385 366 0 3 -39 17 -87 29 -49 13 -89 24 -90 25 -1 0 4 122
12 270 19 354 35 438 116 599 l40 79 -128 -5 c-152 -6 -212 -25 -307 -97 l-63
-48 -44 79 c-24 43 -46 78 -49 78 -3 0 -18 -25 -34 -55 -39 -75 -139 -166
-277 -250 -63 -38 -138 -90 -168 -113 l-53 -44 -35 34 c-19 18 -50 65 -69 103
-54 109 -72 221 -84 510 -5 138 -12 274 -16 303 l-5 52 -42 0 c-97 0 -220 53
-322 137 -110 90 -206 218 -349 466 l-63 108 -97 -162z"/>
<path d="M10606 5162 c-72 -114 -121 -241 -155 -397 -11 -49 -24 -91 -28 -93
-4 -1 -53 -26 -108 -55 l-100 -52 -52 -93 -52 -93 29 -110 c41 -156 56 -310
41 -431 -19 -160 8 -163 -263 27 -130 91 -239 165 -242 165 -2 0 18 -48 45
-106 28 -58 48 -108 45 -111 -9 -9 -378 119 -456 157 -92 46 -210 133 -331
243 -50 45 -100 89 -112 97 -19 14 -19 13 -10 -5 22 -40 253 -558 253 -566 0
-4 -70 -59 -156 -121 -91 -65 -151 -114 -143 -117 8 -3 123 -39 257 -81 133
-42 245 -79 248 -82 5 -6 -108 -38 -224 -64 -103 -24 -369 -30 -467 -11 -44 9
-81 14 -82 13 -3 -2 437 -188 744 -315 62 -25 113 -48 113 -51 0 -3 -172 -72
-383 -153 -245 -95 -366 -146 -337 -142 25 3 106 8 180 11 124 6 140 4 194
-16 61 -23 128 -81 155 -133 13 -24 11 -42 -17 -179 -18 -83 -31 -153 -29
-154 2 -2 77 5 168 17 90 11 228 22 305 26 136 6 143 5 179 -17 24 -15 45 -39
57 -68 28 -64 21 -103 -49 -270 -7 -16 44 -9 182 24 200 49 386 154 530 299
l81 80 1 -165 c1 -182 11 -283 49 -470 82 -409 250 -783 474 -1054 l74 -90 8
32 c9 33 44 52 70 36 7 -5 -18 28 -55 71 -255 296 -466 762 -542 1190 -21 121
-35 325 -27 405 l7 65 123 -115 c263 -246 390 -328 522 -338 75 -5 147 12 132
31 -28 36 -62 150 -62 208 0 60 1 63 44 105 l43 44 99 0 c93 0 340 -23 497
-46 26 -4 37 -2 37 7 0 6 -14 78 -32 159 l-31 147 31 44 c37 54 93 95 158 115
56 17 201 18 309 3 42 -6 78 -9 80 -7 2 2 -167 68 -376 148 -208 80 -379 147
-379 150 0 3 196 86 434 185 239 99 433 181 432 182 -1 2 -40 -5 -87 -13 -128
-24 -358 -15 -511 20 -65 15 -135 33 -155 40 l-38 13 180 57 c99 32 218 70
264 85 l85 27 -135 97 c-73 53 -145 105 -158 115 l-24 19 128 284 c70 156 130
289 133 294 7 12 -30 -19 -171 -141 -121 -106 -198 -160 -294 -208 -70 -34
-441 -162 -449 -154 -2 3 18 52 45 109 27 57 48 106 46 108 -2 2 -41 -24 -87
-56 -174 -125 -377 -263 -386 -263 -17 0 -32 104 -32 228 0 133 15 242 50 367
l21 74 -54 95 -53 96 -105 51 c-57 28 -105 52 -106 53 -1 1 -20 73 -42 159
-21 86 -51 182 -66 214 -32 70 -84 153 -96 153 -5 0 -20 -17 -33 -38z"/>
</g>
</svg>
