<?xml version="1.0" standalone="no"?>
<!DOCTYPE svg PUBLIC "-//W3C//DTD SVG 20010904//EN"
 "http://www.w3.org/TR/2001/REC-SVG-20010904/DTD/svg10.dtd">
<svg version="1.0" xmlns="http://www.w3.org/2000/svg"
 width="1280.000000pt" height="793.000000pt" viewBox="0 0 1280.000000 793.000000"
 preserveAspectRatio="xMidYMid meet">
<metadata>
Created by potrace 1.15, written by Peter Selinger 2001-2017
</metadata>
<g transform="translate(0.000000,793.000000) scale(0.100000,-0.100000)"
fill="#FC7D45" stroke="none">
<path d="M6455 7315 c-159 -18 -242 -53 -324 -135 -60 -60 -101 -119 -125
-180 -24 -58 -38 -230 -24 -292 14 -69 5 -93 -16 -43 -30 68 -95 161 -136 194
-22 18 -66 44 -98 59 -80 36 -224 38 -327 3 -264 -89 -423 -252 -486 -498 -35
-137 -17 -278 56 -443 46 -104 88 -163 168 -236 103 -93 170 -125 427 -204
256 -79 479 -164 480 -183 0 -12 -283 2 -365 18 -38 8 -119 25 -180 39 -182
42 -398 31 -570 -30 -142 -50 -284 -170 -393 -333 -72 -109 -89 -159 -98 -287
-9 -119 6 -194 58 -302 91 -186 308 -352 463 -352 85 0 195 37 263 87 38 29
40 25 8 -30 -13 -23 -34 -75 -47 -116 -19 -64 -21 -88 -16 -185 9 -172 50
-261 169 -371 82 -74 167 -122 288 -160 167 -53 300 -41 463 41 37 19 72 34
79 34 15 0 146 102 176 138 37 43 110 163 128 210 9 23 20 42 23 42 6 0 24
-87 37 -180 3 -20 5 -247 2 -310 0 -8 -6 -49 -13 -90 -8 -41 -16 -97 -19 -125
-10 -79 -13 -102 -42 -290 -25 -162 -58 -312 -99 -445 -9 -30 -19 -68 -22 -85
-11 -63 -195 -679 -222 -740 -5 -11 -15 -42 -24 -70 -34 -111 -88 -260 -97
-269 -6 -6 -10 -19 -10 -30 0 -11 -24 -95 -54 -186 -29 -91 -66 -204 -80 -252
-15 -48 -66 -187 -112 -310 -92 -239 -154 -407 -154 -415 0 -2 23 -3 51 -1
l51 3 53 125 c30 69 70 170 90 225 20 55 52 136 70 181 33 79 100 270 115 329
5 17 76 230 158 475 82 245 161 486 176 535 15 50 36 119 47 155 10 36 23 79
28 95 12 39 82 314 87 340 2 11 12 63 23 115 11 52 29 142 40 200 18 98 25
144 51 340 6 41 15 111 21 154 7 47 9 136 6 215 -6 150 -8 163 -43 336 -76
374 -86 435 -75 435 4 0 16 -19 25 -42 16 -38 39 -92 68 -154 5 -12 28 -45 50
-74 22 -29 49 -70 60 -91 11 -22 47 -64 80 -93 97 -88 241 -148 399 -165 121
-14 151 -10 324 47 171 56 207 75 300 164 95 90 146 162 187 261 77 189 77
341 2 505 -36 79 -119 171 -177 196 -31 14 -28 14 58 15 165 2 259 49 368 183
54 67 84 135 113 259 14 63 33 137 41 166 23 76 14 170 -25 273 -57 148 -236
376 -309 394 -15 4 -74 27 -130 52 -141 61 -215 77 -338 72 -91 -4 -110 -9
-213 -51 -132 -55 -237 -107 -309 -153 -28 -18 -53 -30 -56 -27 -3 3 17 37 45
76 86 120 152 270 178 404 26 132 -4 376 -60 488 -24 47 -73 111 -137 178 -84
87 -294 169 -463 179 -36 2 -110 -1 -165 -7z"/>
<path d="M2710 5053 c-59 -10 -166 -47 -199 -68 -99 -63 -158 -179 -170 -328
-3 -48 -10 -88 -15 -90 -5 -1 -18 28 -30 64 -39 121 -127 204 -263 250 -56 18
-79 21 -152 15 -108 -7 -142 -17 -264 -72 -183 -84 -281 -161 -362 -289 -49
-76 -65 -117 -80 -200 -13 -79 -5 -188 18 -233 8 -15 23 -47 34 -72 11 -25 39
-70 62 -100 22 -30 41 -60 41 -67 0 -19 229 -208 323 -266 28 -18 81 -45 117
-61 36 -16 151 -70 255 -121 105 -51 237 -114 293 -141 103 -48 131 -74 36
-34 -78 34 -350 107 -478 129 -82 15 -162 21 -260 21 -332 -1 -476 -40 -642
-176 -70 -57 -140 -147 -162 -209 -22 -59 -40 -189 -37 -259 7 -134 14 -146
164 -300 151 -153 188 -182 281 -220 107 -44 226 -32 299 30 42 36 64 45 39
17 -20 -24 -55 -110 -68 -167 -12 -54 1 -160 27 -214 26 -55 110 -139 187
-187 139 -86 270 -125 426 -125 77 0 95 3 146 29 132 66 260 208 319 353 40
96 51 198 36 326 -7 59 -17 148 -22 197 -4 50 -13 119 -19 155 -16 105 -29
219 -35 315 -6 84 -5 89 10 70 9 -11 19 -31 22 -45 3 -14 12 -34 19 -45 7 -11
24 -65 39 -120 14 -55 33 -118 41 -140 8 -22 19 -62 23 -90 12 -64 41 -167 51
-180 4 -5 11 -28 15 -50 4 -22 10 -44 15 -50 4 -5 10 -26 14 -45 3 -19 13 -48
22 -65 8 -16 26 -59 40 -95 32 -84 71 -173 100 -230 12 -25 51 -101 86 -170
35 -69 69 -143 77 -165 7 -22 21 -49 30 -60 17 -19 71 -135 71 -150 0 -5 6
-16 14 -24 7 -9 26 -38 41 -66 15 -27 46 -80 69 -118 22 -37 48 -79 57 -95 8
-15 29 -49 47 -76 18 -28 32 -53 32 -57 0 -4 30 -56 66 -116 37 -59 87 -144
111 -188 25 -44 51 -87 59 -96 7 -8 24 -34 36 -57 13 -22 50 -87 84 -144 33
-57 64 -110 67 -118 4 -8 29 -49 55 -90 l49 -75 78 -3 77 -3 -35 43 c-19 24
-74 105 -121 181 -144 231 -295 476 -316 515 -25 47 -35 63 -85 135 -79 116
-115 173 -137 217 -12 25 -42 81 -67 125 -100 181 -288 561 -358 725 -105 246
-220 559 -238 650 -4 19 -11 40 -15 45 -4 6 -11 26 -15 45 -3 19 -15 58 -25
87 -22 60 -60 205 -59 225 1 24 70 -136 109 -254 22 -65 46 -128 54 -140 8
-13 17 -38 21 -55 4 -18 11 -36 17 -39 5 -3 18 -26 28 -49 30 -69 203 -233
285 -271 153 -71 353 -92 481 -53 189 58 277 143 308 299 8 41 28 113 45 160
31 85 39 166 25 238 -9 46 -67 107 -126 134 l-52 23 66 6 c180 15 312 124 362
299 11 38 17 105 18 220 2 147 0 172 -20 231 -21 62 -72 142 -117 182 -64 58
-231 107 -361 107 -78 0 -236 -31 -358 -71 -49 -16 -91 -27 -94 -25 -5 6 0 19
27 61 105 169 151 272 163 361 13 107 5 258 -17 314 -24 60 -107 184 -159 238
-68 72 -109 90 -277 122 -122 24 -176 30 -273 29 -67 -1 -132 -4 -146 -6z
m-30 -1822 c0 -5 -7 -17 -16 -26 -13 -13 -19 -14 -25 -4 -4 8 -1 18 9 26 20
15 32 16 32 4z m-150 -51 c9 -17 8 -20 -13 -20 -13 0 -32 9 -42 20 -18 20 -17
20 13 20 21 0 35 -7 42 -20z"/>
<path d="M10476 4870 c-125 -32 -196 -72 -277 -158 -85 -89 -122 -162 -157
-312 -22 -94 -25 -130 -27 -355 -3 -242 4 -331 40 -555 13 -77 -9 -33 -49 100
-50 164 -67 210 -109 300 -19 41 -44 96 -55 121 -28 66 -142 236 -200 300 -94
103 -291 220 -403 239 -126 22 -313 -33 -433 -127 -58 -44 -179 -191 -231
-278 -49 -82 -76 -174 -82 -275 -4 -71 -2 -94 16 -142 39 -101 131 -195 238
-242 23 -10 40 -22 38 -26 -2 -4 -35 -10 -72 -13 -156 -13 -291 -96 -353 -217
-32 -63 -52 -165 -45 -229 16 -135 92 -320 184 -444 58 -79 186 -173 304 -224
80 -34 249 -46 342 -25 117 28 201 56 244 84 25 15 47 26 49 23 3 -2 -22 -38
-54 -80 -190 -243 -239 -306 -279 -363 -25 -35 -45 -65 -45 -67 0 -3 -15 -26
-34 -52 -32 -46 -164 -274 -241 -418 -21 -38 -66 -117 -100 -175 -34 -58 -81
-141 -105 -185 -23 -44 -57 -107 -75 -140 -65 -120 -422 -834 -463 -927 -2 -5
25 -8 61 -8 l64 0 37 73 c20 39 42 83 49 97 8 14 69 137 137 274 68 136 137
269 154 295 16 25 52 89 79 141 28 52 83 150 124 217 40 68 73 125 73 127 0 1
23 43 51 92 28 49 70 123 92 164 92 170 103 190 151 265 21 33 52 81 69 108
17 26 34 47 39 47 4 0 8 5 8 10 0 6 62 92 138 191 75 100 175 236 222 303 125
178 153 216 162 216 4 0 8 6 8 13 0 7 23 44 50 82 28 38 50 73 50 78 0 19 67
90 116 122 81 54 91 55 60 7 -14 -23 -26 -45 -26 -48 0 -23 -125 -209 -201
-301 -82 -98 -199 -261 -199 -278 0 -3 -11 -30 -24 -58 -38 -81 -55 -151 -67
-273 -22 -214 14 -326 148 -455 132 -127 174 -154 318 -202 115 -38 244 -46
363 -24 105 20 169 50 252 117 77 63 102 90 138 150 24 41 27 53 25 130 -2 74
-13 137 -38 217 -12 39 9 25 30 -20 26 -55 107 -141 172 -184 158 -102 398
-77 584 62 129 95 183 166 248 324 l43 104 -4 121 c-3 119 -4 122 -45 206 -23
47 -51 99 -63 117 l-21 32 53 27 c61 31 104 63 205 151 116 103 153 211 153
445 0 304 -89 503 -290 651 -106 78 -277 86 -432 21 -32 -13 -60 -24 -63 -24
-13 0 -2 23 38 83 43 64 50 78 81 172 20 62 21 166 2 230 -32 104 -128 228
-250 322 -69 52 -108 70 -248 113 -138 43 -320 51 -442 20z m-363 -1689 c4
-18 -9 -41 -24 -41 -13 0 -19 33 -8 46 16 19 26 17 32 -5z m87 -141 c0 -5 -7
-7 -15 -4 -8 4 -15 8 -15 10 0 2 7 4 15 4 8 0 15 -4 15 -10z"/>
</g>
</svg>
