<?xml version="1.0" standalone="no"?>
<!DOCTYPE svg PUBLIC "-//W3C//DTD SVG 20010904//EN"
 "http://www.w3.org/TR/2001/REC-SVG-20010904/DTD/svg10.dtd">
<svg version="1.0" xmlns="http://www.w3.org/2000/svg"
 width="1280.000000pt" height="961.000000pt" viewBox="0 0 1280.000000 961.000000"
 preserveAspectRatio="xMidYMid meet">
<metadata>
Created by potrace 1.15, written by Peter Selinger 2001-2017
</metadata>
<g transform="translate(0.000000,961.000000) scale(0.100000,-0.100000)"
fill="#000000" stroke="none">
<path d="M2746 9353 c-14 -15 -28 -39 -31 -54 -7 -33 -33 -84 -63 -127 -13
-17 -45 -80 -73 -139 -50 -108 -67 -142 -99 -198 -18 -33 -70 -188 -70 -211 0
-8 -7 -29 -16 -46 -9 -17 -23 -65 -30 -107 -8 -42 -16 -80 -18 -86 -1 -5 -6
-22 -11 -37 -9 -33 -23 -35 -73 -9 -20 10 -55 24 -77 31 -124 40 -260 130
-343 228 -26 30 -62 71 -81 91 -18 19 -69 79 -112 132 -42 53 -98 114 -122
135 -52 45 -114 80 -124 70 -12 -11 83 -188 133 -247 135 -161 186 -219 193
-219 5 0 44 -34 88 -76 43 -42 96 -85 118 -96 22 -10 58 -32 80 -49 47 -34
150 -84 195 -94 35 -8 35 -4 2 -95 -11 -30 -22 -71 -25 -90 -3 -19 -8 -44 -11
-55 -22 -80 -46 -197 -42 -203 3 -5 1 -14 -4 -22 -5 -9 -4 -20 3 -29 8 -9 12
-58 12 -145 -1 -105 -4 -137 -18 -164 -24 -44 -27 -101 -6 -115 29 -18 66 1
105 55 21 29 39 55 41 57 7 10 14 -12 37 -125 32 -159 69 -251 144 -360 77
-111 99 -135 198 -215 109 -88 125 -98 160 -92 63 12 63 25 -3 111 -76 99
-122 230 -147 414 l-5 38 52 -39 c132 -97 274 -184 302 -185 27 -1 30 2 29 29
-1 17 -22 71 -47 120 -65 130 -69 136 -106 184 -82 103 -215 300 -208 308 3 2
23 -5 44 -15 43 -23 144 -44 155 -34 4 4 -6 34 -23 67 -16 33 -36 85 -45 115
-9 30 -27 75 -40 99 -43 82 -9 75 83 -17 32 -32 78 -82 103 -112 75 -92 337
-349 362 -355 13 -3 37 -7 53 -8 28 -2 30 0 29 33 -1 20 -21 76 -47 129 -26
52 -45 96 -43 99 3 2 49 -15 103 -38 150 -64 181 -79 188 -90 8 -13 41 -13 63
1 20 12 48 -3 188 -103 37 -27 70 -48 74 -48 3 0 12 -11 20 -24 10 -20 20 -24
56 -24 42 0 44 1 44 29 0 26 -47 127 -71 153 -5 6 -9 13 -9 18 0 14 35 -5 77
-44 24 -21 48 -38 54 -38 6 0 39 -25 72 -55 34 -30 70 -55 79 -55 25 0 50 29
43 51 -4 10 -8 29 -11 41 -7 39 -12 62 -19 91 -6 24 -4 27 17 27 14 0 38 -4
54 -9 41 -14 427 -34 486 -26 41 6 48 10 48 29 0 42 -50 69 -190 102 -94 22
-212 71 -268 111 l-43 32 73 36 c136 67 165 83 172 100 7 18 -25 69 -52 84
-15 8 -116 -1 -392 -35 l-55 -7 85 62 c113 83 113 82 101 114 -18 47 -39 51
-205 38 -83 -7 -167 -14 -186 -17 -19 -2 -28 -1 -20 2 24 10 121 76 162 109
20 16 47 38 61 47 30 21 31 55 3 70 -26 14 -128 11 -244 -8 -70 -11 -149 -15
-282 -13 -326 5 -472 4 -596 -5 -158 -12 -162 -10 -130 51 36 69 207 214 321
271 46 22 144 52 173 52 12 0 33 5 49 12 34 14 39 15 58 17 8 0 30 15 50 32
47 42 44 68 -12 93 -24 11 -43 22 -42 25 0 3 32 22 71 41 86 42 226 133 251
162 9 11 17 31 17 44 0 44 -32 49 -219 35 -93 -7 -178 -10 -190 -6 -11 3 -46
1 -78 -5 -32 -6 -121 -15 -199 -20 -82 -5 -162 -15 -193 -25 -28 -10 -55 -15
-58 -11 -4 4 -1 22 5 40 19 53 19 142 -1 164 -9 10 -17 24 -17 30 0 10 -49 42
-64 42 -3 0 -16 -12 -30 -27z"/>
<path d="M9046 9119 c-14 -11 -26 -25 -26 -31 0 -10 24 -66 55 -128 15 -30 67
-189 94 -285 10 -38 33 -106 51 -150 39 -98 70 -193 70 -220 0 -11 11 -50 24
-87 13 -38 22 -68 20 -68 -3 0 -17 6 -32 14 -41 21 -139 31 -157 16 -22 -19
-17 -208 10 -368 6 -34 9 -32 -71 -62 -43 -15 -60 -53 -36 -77 27 -26 50 -100
51 -164 2 -72 -19 -99 -119 -154 -46 -25 -91 -60 -122 -95 -49 -56 -131 -208
-143 -267 -4 -18 -12 -33 -18 -33 -7 0 -39 -13 -73 -29 l-61 -29 -6 -63 c-10
-94 -72 -216 -127 -247 -49 -27 -83 -78 -104 -153 -12 -39 -25 -62 -46 -77
-16 -12 -36 -37 -45 -56 -9 -20 -32 -44 -52 -56 -30 -18 -34 -24 -31 -57 3
-36 5 -38 61 -54 33 -10 109 -22 170 -29 193 -19 260 -31 327 -60 36 -15 88
-35 115 -43 28 -8 67 -22 87 -31 47 -20 239 -26 261 -8 8 7 48 20 88 28 41 8
84 21 96 27 61 34 146 90 241 160 59 44 120 86 136 94 28 15 30 14 55 -15 111
-131 129 -167 141 -273 11 -91 38 -158 98 -237 22 -29 43 -70 46 -90 4 -20 17
-68 30 -107 40 -120 46 -141 46 -163 0 -11 4 -23 10 -27 5 -3 7 -12 3 -20 -3
-10 1 -15 15 -15 12 0 33 -5 47 -12 22 -10 28 -8 46 10 11 12 37 31 58 42 22
11 52 35 68 54 15 19 62 56 103 83 147 97 349 281 404 371 14 23 32 42 39 42
6 0 26 -23 42 -51 44 -76 59 -89 100 -87 30 1 41 8 69 47 76 104 141 315 147
481 1 30 10 82 19 115 9 33 15 65 13 72 -5 14 15 27 42 29 11 1 135 5 275 9
140 4 260 11 265 15 6 4 66 9 135 9 204 3 200 19 -40 156 -112 64 -180 97
-281 136 -46 17 -120 49 -164 70 -45 22 -86 39 -93 39 -7 0 -12 4 -12 10 0 5
-11 12 -25 16 -32 8 -32 24 -1 24 14 0 31 6 38 13 7 8 26 17 41 21 32 8 36 35
9 60 -12 10 -34 16 -63 15 -25 -1 -76 10 -119 26 -41 14 -82 29 -90 31 -12 4
-10 9 9 25 16 13 39 19 76 19 107 0 117 84 12 97 -27 3 -145 41 -192 62 -11 5
-53 24 -93 42 l-73 32 74 27 c156 57 391 197 531 315 67 57 210 217 285 318
110 150 185 375 151 458 -22 53 -87 48 -107 -8 -6 -15 -20 -62 -33 -103 -39
-131 -61 -167 -205 -345 -88 -107 -116 -132 -278 -256 -152 -115 -198 -147
-252 -175 -27 -15 -64 -37 -80 -50 -32 -24 -89 -49 -83 -37 2 5 18 37 37 73
40 77 54 177 28 198 -18 15 -77 -1 -140 -38 -20 -12 -37 -20 -37 -17 0 3 -13
2 -29 -3 l-28 -8 -6 88 c-6 83 -5 93 23 161 17 40 43 94 59 119 41 64 43 79
27 161 -9 41 -18 90 -20 109 -12 84 -19 94 -81 115 l-58 19 -61 -66 c-68 -74
-91 -83 -165 -67 -38 8 -58 20 -86 50 -41 45 -53 70 -90 189 -33 106 -91 208
-124 217 -27 7 -87 -21 -101 -47 -5 -10 -12 -48 -16 -86 -5 -54 -12 -77 -35
-105 -15 -20 -31 -48 -35 -63 -7 -31 -60 -66 -100 -66 -15 0 -46 8 -68 19 -23
10 -72 31 -111 47 -117 48 -191 106 -420 330 -66 64 -138 129 -160 143 -22 14
-53 36 -68 48 -35 28 -47 29 -81 2z"/>
<path d="M378 5799 c-38 -22 -15 -49 71 -83 24 -9 57 -27 75 -40 17 -13 51
-32 76 -42 83 -34 344 -167 390 -198 25 -17 52 -35 61 -41 56 -35 85 -55 94
-62 70 -58 214 -156 327 -223 32 -19 70 -44 84 -57 15 -13 30 -23 34 -23 3 0
38 -25 76 -56 38 -30 85 -64 104 -74 19 -10 62 -44 95 -76 33 -31 89 -80 125
-107 36 -28 67 -53 70 -57 3 -4 31 -25 62 -48 166 -122 318 -301 424 -499 35
-67 70 -115 117 -163 l67 -67 -57 -26 c-110 -49 -150 -51 -598 -32 -104 4
-163 -2 -325 -35 -30 -6 -64 -15 -75 -20 -11 -5 -49 -14 -85 -21 -78 -13 -449
-134 -540 -176 -140 -64 -272 -182 -400 -357 -33 -45 -73 -100 -91 -123 -17
-24 -36 -62 -42 -85 -6 -24 -21 -51 -34 -61 -41 -33 -25 -57 38 -57 19 0 29
-5 29 -15 0 -8 10 -17 23 -19 217 -44 343 -73 372 -87 21 -9 107 -28 160 -35
66 -8 263 -5 309 6 95 21 318 131 466 230 30 20 87 53 125 74 39 21 79 46 90
55 11 10 45 31 75 48 64 36 196 127 260 180 44 37 44 38 26 8 -11 -16 -31 -46
-46 -65 -28 -36 -52 -78 -135 -235 -26 -49 -76 -133 -110 -185 -103 -156 -132
-248 -141 -450 -3 -63 -10 -128 -15 -145 -5 -16 -12 -79 -15 -140 -3 -62 -16
-153 -29 -210 -22 -92 -41 -285 -37 -380 3 -76 22 -310 27 -340 20 -105 30
-145 46 -182 11 -24 19 -45 19 -48 0 -4 11 -23 25 -43 14 -20 25 -45 25 -55 0
-19 29 -59 140 -192 l65 -77 57 5 c32 3 69 13 85 24 44 30 97 52 150 62 96 19
335 140 408 207 25 23 112 127 146 174 28 40 85 168 122 280 14 41 36 102 50
135 14 33 28 83 32 110 7 58 41 273 56 360 14 79 12 189 -6 365 -18 166 -43
274 -121 520 -90 281 -121 357 -190 466 -18 28 -49 94 -69 145 -20 52 -41 105
-48 119 -6 14 -13 30 -16 35 -6 14 53 -41 108 -100 25 -27 134 -138 242 -245
107 -107 242 -253 300 -324 57 -71 147 -179 200 -240 119 -139 290 -359 350
-451 59 -92 189 -358 254 -520 44 -112 54 -134 108 -240 57 -115 134 -235 204
-318 203 -242 480 -499 639 -593 206 -122 281 -153 523 -220 132 -36 137 -36
270 -31 110 4 158 11 251 36 63 18 141 35 174 38 57 6 61 4 173 -53 63 -32
135 -76 160 -96 54 -45 102 -52 105 -15 2 30 4 39 13 60 4 10 3 35 -3 55 -6
20 -21 98 -34 172 -28 169 -31 467 -6 595 12 61 14 104 8 180 -9 117 -30 183
-120 370 -65 135 -98 189 -147 240 -16 17 -55 63 -87 103 -56 69 -170 178
-299 286 -71 59 -240 162 -367 223 -52 25 -122 59 -154 74 -33 16 -69 29 -81
29 -11 0 -25 4 -30 8 -12 11 -234 62 -420 97 -77 14 -232 51 -345 81 -113 31
-248 65 -300 76 -52 11 -153 39 -225 63 -71 23 -164 52 -205 64 -41 13 -85 27
-98 32 -13 5 -67 25 -120 45 -54 20 -119 53 -147 74 -27 21 -81 57 -120 81
-91 55 -221 158 -264 211 -19 22 -80 74 -135 115 -91 67 -212 193 -185 193 6
0 39 -7 73 -16 91 -24 172 -38 281 -50 55 -6 92 -15 205 -50 244 -76 672 -134
980 -134 211 0 434 37 555 90 269 121 515 271 696 426 44 37 103 85 132 107
93 70 282 255 310 304 25 43 51 96 122 244 12 26 32 63 44 82 12 20 24 48 25
63 2 14 8 29 14 33 16 10 42 76 42 106 0 16 -6 25 -15 25 -9 0 -20 11 -25 24
-12 33 -58 46 -159 46 -47 0 -131 5 -186 10 -55 6 -145 16 -200 21 -55 6 -123
15 -152 21 -63 13 -84 14 -198 5 -101 -9 -113 -11 -172 -37 -22 -11 -74 -24
-115 -29 -40 -6 -125 -17 -188 -26 -188 -25 -347 -79 -465 -158 -33 -22 -132
-111 -220 -197 -278 -274 -655 -530 -831 -564 -16 -3 -49 -10 -74 -15 -96 -21
-320 -33 -454 -26 l-137 7 7 37 c3 20 11 41 18 47 36 35 307 147 386 160 51 8
166 50 255 94 102 50 225 169 225 217 0 22 61 83 132 131 26 18 51 38 55 46 4
7 25 24 45 37 245 161 447 365 521 529 64 144 74 192 62 306 -6 58 -12 72 -37
96 -22 20 -40 28 -67 28 -36 0 -49 -7 -132 -66 -59 -41 -169 -81 -249 -89 -88
-9 -255 -42 -310 -61 -165 -58 -287 -114 -416 -189 -54 -32 -101 -61 -104 -65
-3 -3 -34 -28 -70 -55 -165 -125 -320 -317 -380 -470 -17 -44 -35 -89 -40
-100 -17 -36 -29 -99 -36 -183 -4 -45 -10 -85 -15 -87 -14 -9 -22 -94 -11
-108 8 -9 8 -53 2 -148 -5 -74 -9 -144 -10 -156 0 -13 -6 -23 -13 -23 -30 0
-109 95 -155 185 -17 33 -45 80 -61 105 -17 25 -31 48 -31 52 0 4 -36 61 -80
127 -80 120 -139 181 -273 289 -40 31 -135 114 -212 185 -82 75 -187 159 -255
204 -63 42 -160 106 -215 142 -55 36 -208 120 -340 187 -132 66 -258 132 -280
146 -22 13 -45 27 -50 29 -6 2 -42 23 -80 46 -130 78 -367 142 -417 112z"/>
<path d="M8285 4093 c-30 -7 -70 -49 -72 -75 -1 -16 8 -29 30 -43 32 -21 80
-77 282 -334 121 -154 164 -220 165 -255 0 -24 68 -140 107 -182 15 -17 70
-65 121 -108 51 -43 100 -89 109 -103 15 -23 15 -27 -1 -55 -10 -16 -19 -51
-21 -76 -2 -26 -6 -74 -10 -108 -7 -60 5 -128 39 -209 17 -40 35 -93 48 -135
5 -19 18 -43 28 -52 10 -9 25 -39 35 -67 9 -27 23 -55 32 -62 15 -13 63 -110
69 -141 2 -9 12 -31 23 -50 11 -20 24 -73 31 -133 14 -117 28 -152 100 -260
100 -149 162 -189 282 -183 70 3 73 2 85 -24 8 -15 21 -57 29 -95 25 -109 44
-152 85 -195 35 -37 42 -40 76 -36 46 6 172 56 191 75 7 7 17 13 21 13 29 0
70 -94 134 -310 46 -154 50 -162 105 -221 51 -56 57 -59 101 -59 28 0 58 8 77
19 44 27 174 62 239 64 46 2 58 -2 82 -24 50 -48 95 -69 145 -69 59 0 91 26
178 145 52 71 67 85 90 85 15 0 33 -7 41 -16 26 -31 87 -54 146 -54 32 0 81
-8 110 -19 109 -40 292 -32 343 14 36 32 26 129 -23 235 -11 25 -20 49 -19 53
6 21 -24 95 -51 127 -15 19 -53 67 -82 107 l-54 72 34 57 c73 121 101 254 72
345 -17 55 -92 152 -129 169 -39 17 -207 18 -237 1 -36 -20 -48 -1 -28 46 25
58 89 225 91 237 2 6 6 28 11 50 11 54 -10 136 -49 196 -46 70 -81 95 -130 94
-59 -2 -136 -15 -142 -25 -3 -5 -14 -9 -25 -9 -11 0 -33 -10 -48 -21 -16 -12
-34 -20 -40 -18 -12 5 -5 19 57 108 23 35 42 66 42 69 0 4 13 24 30 44 16 20
34 47 39 61 10 25 23 110 22 137 0 8 -1 36 -1 62 0 26 -5 50 -10 53 -6 3 -10
14 -10 24 0 9 -17 34 -39 55 -34 33 -47 39 -127 53 -119 20 -215 11 -292 -28
-41 -21 -72 -29 -110 -29 -29 0 -69 -7 -89 -15 -20 -8 -63 -22 -97 -31 -34 -8
-80 -27 -104 -40 -80 -47 -139 -61 -269 -63 -70 -1 -131 2 -142 8 -11 6 -27
32 -35 59 -30 88 -81 157 -154 206 -93 62 -162 86 -245 86 -38 0 -78 -5 -89
-11 -12 -6 -51 -15 -88 -20 -37 -4 -83 -17 -101 -27 -33 -18 -90 -86 -108
-129 -6 -11 -14 -24 -20 -27 -18 -12 -71 24 -147 97 -67 66 -81 87 -162 247
-49 96 -92 186 -95 200 -3 14 -38 61 -77 105 -41 45 -74 92 -77 108 -8 38 -80
113 -166 171 -38 26 -84 58 -101 71 -18 14 -35 24 -37 24 -2 -1 -13 -3 -24 -6z"/>
</g>
</svg>
