<?xml version="1.0" standalone="no"?>
<!DOCTYPE svg PUBLIC "-//W3C//DTD SVG 20010904//EN"
 "http://www.w3.org/TR/2001/REC-SVG-20010904/DTD/svg10.dtd">
<svg version="1.0" xmlns="http://www.w3.org/2000/svg"
 width="1280.000000pt" height="1268.000000pt" viewBox="0 0 1280.000000 1268.000000"
 preserveAspectRatio="xMidYMid meet">
<metadata>
Created by potrace 1.15, written by Peter Selinger 2001-2017
</metadata>
<g transform="translate(0.000000,1268.000000) scale(0.100000,-0.100000)"
fill="#000000" stroke="none">
<path d="M6930 12674 c-142 -13 -628 -93 -950 -155 -233 -45 -293 -59 -403
-96 -69 -22 -84 -24 -123 -14 -58 15 -312 29 -654 37 -602 15 -910 -53 -1235
-270 -226 -152 -400 -339 -563 -607 -98 -161 -124 -304 -104 -588 16 -225 51
-364 161 -641 217 -542 505 -933 1291 -1750 572 -596 760 -807 760 -856 0 -22
-4 -24 -55 -24 -71 0 -104 14 -228 98 -144 97 -311 227 -627 488 -461 380
-528 434 -699 567 -273 210 -489 351 -638 416 -255 111 -675 176 -984 152
-361 -29 -635 -121 -909 -305 -267 -181 -693 -589 -751 -721 -39 -88 -62 -272
-80 -634 -15 -290 -5 -475 39 -761 l27 -175 -61 -225 c-95 -346 -129 -590
-141 -980 -11 -390 26 -628 127 -832 131 -262 515 -703 795 -911 166 -124 401
-209 685 -248 149 -21 466 -18 570 5 138 30 352 103 457 156 198 99 526 333
938 670 627 512 877 707 980 762 52 29 69 33 135 33 66 0 81 -4 127 -30 l51
-31 -240 -249 c-1143 -1190 -1315 -1395 -1538 -1835 -192 -380 -325 -781 -375
-1130 -31 -223 -12 -647 40 -850 38 -150 106 -316 168 -405 88 -128 223 -295
237 -295 39 0 239 158 285 225 19 27 42 70 51 95 24 67 28 215 10 394 -21 206
-21 514 -1 632 20 115 82 345 139 509 105 308 231 556 451 890 223 338 624
850 845 1079 89 92 275 244 286 234 4 -5 -83 -221 -164 -403 -56 -127 -178
-370 -287 -570 -195 -358 -267 -517 -291 -642 -39 -205 -58 -471 -58 -813 0
-300 2 -350 22 -480 26 -163 73 -391 103 -493 69 -236 230 -492 438 -697 210
-208 401 -305 730 -372 112 -22 141 -23 466 -14 304 9 401 33 810 196 235 94
346 133 490 173 398 110 703 139 937 89 106 -23 107 -23 145 -4 21 11 110 43
197 71 88 28 195 70 239 94 289 154 861 696 977 927 90 180 158 546 147 796
-14 308 -105 578 -310 919 -129 216 -236 345 -506 615 -240 240 -423 403 -916
820 -612 516 -830 714 -823 748 2 10 11 16 23 14 37 -7 250 -150 807 -543 576
-406 815 -553 1051 -649 530 -213 1082 -324 1539 -307 263 9 446 52 653 153
119 58 323 192 470 310 144 115 408 379 473 472 131 189 223 558 209 838 -8
153 -34 268 -126 570 -93 305 -155 532 -173 629 -21 116 -16 466 11 690 28
235 38 580 22 720 -25 215 -86 439 -166 612 -134 290 -448 593 -770 744 -190
88 -470 155 -792 190 -168 17 -526 7 -678 -20 -244 -43 -634 -155 -715 -204
-108 -66 -377 -317 -970 -901 -239 -236 -518 -508 -620 -604 -168 -159 -283
-253 -295 -241 -13 14 181 310 660 1009 666 971 763 1136 866 1467 151 489 7
1150 -359 1653 -119 163 -276 289 -502 404 -193 98 -385 158 -610 191 -102 15
-553 28 -650 19z"/>
</g>
</svg>
