<svg width="13" height="23" viewBox="0 0 13 23" fill="none" xmlns="http://www.w3.org/2000/svg">
<path d="M11.9462 0.00470151L9.01598 0C5.72402 0 3.59661 2.18267 3.59661 5.56094V8.12491H0.65044C0.395856 8.12491 0.189697 8.3313 0.189697 8.58589V12.3008C0.189697 12.5554 0.396092 12.7615 0.65044 12.7615H3.59661V22.1354C3.59661 22.39 3.80277 22.5961 4.05735 22.5961H7.90127C8.15585 22.5961 8.36201 22.3897 8.36201 22.1354V12.7615H11.8068C12.0614 12.7615 12.2675 12.5554 12.2675 12.3008L12.2689 8.58589C12.2689 8.46365 12.2203 8.34658 12.134 8.26007C12.0477 8.17357 11.9302 8.12491 11.8079 8.12491H8.36201V5.9514C8.36201 4.90673 8.61095 4.3764 9.97179 4.3764L11.9457 4.37569C12.2 4.37569 12.4062 4.16929 12.4062 3.91494V0.465449C12.4062 0.211333 12.2003 0.00517166 11.9462 0.00470151Z" fill="#353535" fill-opacity="0.7"/>
</svg>
