<svg width="24" height="23" viewBox="0 0 24 23" fill="none" xmlns="http://www.w3.org/2000/svg">
<g clip-path="url(#clip0_3_138)">
<path d="M7.65741 1.3581e-06L16.131 6.17318e-07C20.0302 2.76435e-07 23.1923 3.16205 23.1923 7.06129L23.1923 15.5348C23.1923 19.4341 20.0302 22.5961 16.131 22.5961L7.65742 22.5961C3.75817 22.5961 0.596123 19.4341 0.596122 15.5348L0.596121 7.0613C0.596121 3.16205 3.75817 1.69898e-06 7.65741 1.3581e-06ZM2.71451 15.5348C2.71451 18.2605 4.93176 20.4778 7.65742 20.4778L16.131 20.4778C18.8566 20.4778 21.0739 18.2605 21.0739 15.5348L21.0739 7.06129C21.0739 4.33563 18.8566 2.11839 16.131 2.11839L7.65741 2.11839C4.93176 2.11839 2.71451 4.33564 2.71451 7.0613L2.71451 15.5348Z" fill="#353535" fill-opacity="0.7"/>
<path d="M11.8942 5.64905C15.0139 5.64905 17.5432 8.1784 17.5432 11.2981C17.5432 14.4178 15.0139 16.9471 11.8942 16.9471C8.7745 16.9471 6.24514 14.4178 6.24514 11.2981C6.24514 8.1784 8.7745 5.64905 11.8942 5.64905ZM11.8942 14.8287C13.8403 14.8287 15.4248 13.2442 15.4248 11.2981C15.4248 9.35058 13.8403 7.76744 11.8942 7.76744C9.94809 7.76744 8.36353 9.35058 8.36353 11.2981C8.36353 13.2442 9.94809 14.8287 11.8942 14.8287Z" fill="#353535" fill-opacity="0.7"/>
<path d="M5.82149 5.97824C5.40577 5.97824 5.06876 5.64123 5.06876 5.22551C5.06876 4.80979 5.40577 4.47278 5.82149 4.47278C6.23721 4.47278 6.57422 4.80979 6.57422 5.22551C6.57422 5.64123 6.23721 5.97824 5.82149 5.97824Z" fill="#353535" fill-opacity="0.7"/>
</g>
<defs>
<clipPath id="clip0_3_138">
<rect width="22.5961" height="22.5961" fill="white" transform="matrix(-1 8.74228e-08 8.74228e-08 1 23.1923 0)"/>
</clipPath>
</defs>
</svg>
