<svg width="55" height="55" viewBox="0 0 55 55" fill="none" xmlns="http://www.w3.org/2000/svg">
<path d="M27.5229 38.9583C25.575 38.9583 23.6042 38.4542 22.0688 37.4687L8.27292 28.4625C5.70625 26.7896 4.17084 23.9708 4.17084 20.9C4.17084 17.8292 5.70625 15.0104 8.27292 13.3375L22.0917 4.35415C25.1625 2.3604 29.9521 2.3604 33 4.37707L46.7271 13.3833C49.2708 15.0562 50.8063 17.875 50.8063 20.9229C50.8063 23.9708 49.2708 26.7896 46.7271 28.4625L33 37.4687C31.4646 38.4771 29.4938 38.9583 27.5229 38.9583ZM27.5229 6.30207C26.2167 6.30207 24.9104 6.59999 23.9708 7.24165L10.175 16.225C8.57084 17.2792 7.63125 18.975 7.63125 20.9C7.63125 22.825 8.54792 24.5208 10.175 25.575L23.9708 34.5812C25.8729 35.8187 29.2188 35.8187 31.1208 34.5812L44.8479 25.575C46.4521 24.5208 47.3688 22.825 47.3688 20.9C47.3688 18.975 46.4521 17.2792 44.8479 16.225L31.1208 7.21874C30.1583 6.62291 28.8521 6.30207 27.5229 6.30207Z" fill="#242424"/>
<path d="M27.5 52.1354C26.4917 52.1354 25.4604 51.9979 24.6354 51.7229L17.325 49.2938C13.8646 48.1479 11.1375 44.3667 11.1604 40.7229L11.1833 29.975C11.1833 29.0354 11.9625 28.2563 12.9021 28.2563C13.8417 28.2563 14.6208 29.0354 14.6208 29.975L14.5979 40.7229C14.5979 42.8771 16.3854 45.3521 18.425 46.0396L25.7354 48.4688C26.6521 48.7667 28.3479 48.7667 29.2646 48.4688L36.575 46.0396C38.6146 45.3521 40.4021 42.8771 40.4021 40.7458V30.1125C40.4021 29.1729 41.1813 28.3938 42.1208 28.3938C43.0604 28.3938 43.8396 29.1729 43.8396 30.1125V40.7458C43.8396 44.3896 41.1354 48.1479 37.675 49.3167L30.3646 51.7458C29.5396 51.9979 28.5083 52.1354 27.5 52.1354Z" fill="#242424"/>
<path d="M49.0417 36.0938C48.1021 36.0938 47.3229 35.3146 47.3229 34.375V20.625C47.3229 19.6854 48.1021 18.9062 49.0417 18.9062C49.9812 18.9062 50.7604 19.6854 50.7604 20.625V34.375C50.7604 35.3146 49.9812 36.0938 49.0417 36.0938Z" fill="#242424"/>
</svg>
