<svg width="55" height="55" viewBox="0 0 55 55" fill="none" xmlns="http://www.w3.org/2000/svg">
<path d="M26.2623 33.1833C21.7706 33.1833 18.1039 29.5166 18.1039 25.025C18.1039 20.5333 21.7706 16.8666 26.2623 16.8666C30.7539 16.8666 34.4206 20.5333 34.4206 25.025C34.4206 29.5166 30.7539 33.1833 26.2623 33.1833ZM26.2623 20.3271C23.6727 20.3271 21.5414 22.4354 21.5414 25.0479C21.5414 27.6604 23.6498 29.7687 26.2623 29.7687C28.8748 29.7687 30.9831 27.6604 30.9831 25.0479C30.9831 22.4354 28.8748 20.3271 26.2623 20.3271Z" fill="white"/>
<path d="M38.1563 48.0104C37.2167 48.0104 36.4376 47.2313 36.4376 46.2917C36.4376 41.8917 31.8771 38.3166 26.2626 38.3166C20.648 38.3166 16.0876 41.8917 16.0876 46.2917C16.0876 47.2313 15.3084 48.0104 14.3688 48.0104C13.4292 48.0104 12.6501 47.2313 12.6501 46.2917C12.6501 40.0125 18.7459 34.8791 26.2626 34.8791C33.7792 34.8791 39.8751 39.9896 39.8751 46.2917C39.8751 47.2313 39.0959 48.0104 38.1563 48.0104Z" fill="white"/>
<path d="M26.3542 52.1354C13.4063 52.1354 2.86459 41.5938 2.86459 28.6458C2.86459 15.6979 13.4063 5.15625 26.3542 5.15625C29.5396 5.15625 32.6104 5.77497 35.4979 6.98956C36.3229 7.33331 36.7354 8.24993 36.4604 9.09785C36.2083 9.8541 36.0938 10.6562 36.0938 11.4583C36.0938 12.8104 36.4604 14.1395 37.1708 15.2854C37.5375 15.927 38.0188 16.4999 38.5688 16.9812C40.5625 18.7916 43.5188 19.3646 45.8333 18.5396C46.6813 18.2188 47.6438 18.6542 47.9875 19.5021C49.225 22.4125 49.8438 25.5063 49.8438 28.6688C49.8438 41.5938 39.3021 52.1354 26.3542 52.1354ZM26.3542 8.59375C15.3083 8.59375 6.30209 17.5771 6.30209 28.6458C6.30209 39.7146 15.3083 48.6979 26.3542 48.6979C37.4 48.6979 46.4063 39.7146 46.4063 28.6458C46.4063 26.4458 46.0396 24.2687 45.3521 22.1833C42.1896 22.7333 38.7292 21.748 36.3 19.525C35.4979 18.8375 34.7875 17.9896 34.2375 17.05C33.2292 15.4 32.6792 13.4521 32.6792 11.4583C32.6792 10.8396 32.725 10.2438 32.8396 9.64797C30.7542 8.93755 28.5771 8.59375 26.3542 8.59375Z" fill="white"/>
<path d="M43.5417 22.3437C40.8375 22.3437 38.2708 21.3355 36.2771 19.525C35.475 18.8375 34.7646 17.9896 34.2146 17.05C33.2063 15.4 32.6562 13.4521 32.6562 11.4583C32.6562 10.2896 32.8396 9.14376 33.2063 8.04376C33.7104 6.48543 34.5812 5.04166 35.75 3.87291C37.8125 1.76458 40.5854 0.572906 43.5646 0.572906C46.6812 0.572906 49.6375 1.90211 51.6542 4.19378C53.4417 6.18753 54.45 8.75416 54.45 11.4583C54.45 12.3292 54.3354 13.2 54.1063 14.025C53.8771 15.0562 53.4417 16.1334 52.8458 17.0729C51.5167 19.3188 49.4083 20.9917 46.9333 21.7708C45.9021 22.1604 44.7563 22.3437 43.5417 22.3437ZM43.5417 4.01041C41.5021 4.01041 39.6 4.81245 38.2021 6.2562C37.4 7.0812 36.8271 8.02076 36.4833 9.09784C36.2312 9.85409 36.1167 10.6562 36.1167 11.4583C36.1167 12.8104 36.4833 14.1395 37.1937 15.2854C37.5604 15.927 38.0417 16.4999 38.5917 16.9812C40.5854 18.7916 43.5417 19.3646 45.8563 18.5396C47.5979 17.9896 49.0188 16.8437 49.9354 15.3083C50.3479 14.6437 50.6229 13.9334 50.7833 13.223C50.9438 12.6271 51.0125 12.0542 51.0125 11.4583C51.0125 9.62499 50.325 7.86045 49.0875 6.48545C47.6896 4.9042 45.6729 4.01041 43.5417 4.01041Z" fill="white"/>
<path d="M46.9562 13.1312H40.1042C39.1646 13.1312 38.3854 12.352 38.3854 11.4124C38.3854 10.4729 39.1646 9.6937 40.1042 9.6937H46.9562C47.8958 9.6937 48.675 10.4729 48.675 11.4124C48.675 12.352 47.9187 13.1312 46.9562 13.1312Z" fill="white"/>
<path d="M43.5417 16.6375C42.6021 16.6375 41.8229 15.8584 41.8229 14.9188V8.06671C41.8229 7.12713 42.6021 6.34796 43.5417 6.34796C44.4812 6.34796 45.2604 7.12713 45.2604 8.06671V14.9188C45.2604 15.8813 44.4812 16.6375 43.5417 16.6375Z" fill="white"/>
</svg>
