<svg width="23" height="20" viewBox="0 0 23 20" fill="none" xmlns="http://www.w3.org/2000/svg">
<path d="M22.1223 3.43435C22.0109 3.46689 21.8995 3.49719 21.7881 3.52541C21.1072 3.69735 21.0446 3.47046 21.5376 2.9699C21.7583 2.7456 21.9534 2.50163 22.1228 2.23813C22.5026 1.64726 22.1732 1.38958 21.5271 1.66559C21.2967 1.76405 21.0624 1.85332 20.8249 1.93291C20.1592 2.15647 19.2146 1.81924 18.6214 1.44303C17.8725 0.968149 17.0215 0.730835 16.068 0.730835C14.7323 0.730835 13.5939 1.20189 12.652 2.14325C11.7104 3.08511 11.2393 4.22388 11.2393 5.5592C11.2393 5.74182 11.2497 5.92723 11.2703 6.11521C11.3042 6.42118 10.7889 6.64299 10.0935 6.54478C8.58919 6.33241 7.15999 5.87661 5.80555 5.17788C4.4623 4.48501 3.27676 3.6131 2.24916 2.5621C1.75795 2.05979 1.0936 2.10306 0.910188 2.78113C0.8003 3.1876 0.745647 3.61032 0.745647 4.04937C0.745647 4.87677 0.939946 5.64415 1.32863 6.35152C1.52193 6.70355 1.74831 7.02224 2.00828 7.30739C2.44554 7.78738 2.37863 8.06588 1.76996 7.89523C1.16155 7.72458 0.715682 7.47122 0.715682 7.48776C0.715682 7.50431 0.715682 7.51777 0.715682 7.51777C0.715682 8.68348 1.08171 9.70775 1.81423 10.5896C2.26546 11.1329 2.78967 11.5526 3.38665 11.8482C4.01618 12.16 4.30943 12.3339 3.95741 12.3795C3.74503 12.4069 3.53137 12.4207 3.31645 12.4207C3.17099 12.4207 3.01838 12.4141 2.85916 12.4006C2.60734 12.3792 2.56208 12.9039 2.94386 13.4936C3.2473 13.9621 3.63569 14.3744 4.10882 14.7305C4.59005 15.093 5.1087 15.3531 5.66391 15.5116C6.33949 15.7042 6.47506 16.0549 5.87271 16.4161C4.38221 17.3105 2.73273 17.7576 0.924527 17.7576C0.720794 17.7576 0.526454 17.753 0.3408 17.7441C0.0185348 17.7286 0.234736 18.0124 0.856865 18.3383C2.80089 19.3565 4.90617 19.8651 7.173 19.8651C8.88686 19.8651 10.4964 19.5938 12.0014 19.0507C13.5059 18.5077 14.7917 17.7799 15.8579 16.8681C16.9242 15.9562 17.8437 14.9075 18.6161 13.7214C19.3884 12.5354 19.9637 11.2972 20.3427 10.0069C20.7211 8.71627 20.9107 7.42314 20.9107 6.12747C20.9107 6.01072 20.9097 5.90591 20.9079 5.8136C20.9043 5.64012 21.3632 5.17056 21.8754 4.69012C22.1066 4.47317 22.3272 4.2455 22.5378 4.00669C23.0024 3.47936 22.7966 3.23772 22.1223 3.43435Z" fill="#353535" fill-opacity="0.7"/>
</svg>
