<svg width="17" height="18" viewBox="0 0 17 18" fill="none" xmlns="http://www.w3.org/2000/svg">
<path d="M3.41889 7.87223C4.77889 10.5098 6.97 12.6628 9.64278 14.0142L11.7206 11.9638C11.9756 11.7121 12.3533 11.6283 12.6839 11.7401C13.7417 12.085 14.8844 12.2714 16.0556 12.2714C16.575 12.2714 17 12.6908 17 13.2034V16.4561C17 16.9687 16.575 17.3881 16.0556 17.3881C7.18722 17.3881 0 10.2955 0 1.54383C0 1.03122 0.425 0.611816 0.944444 0.611816H4.25C4.76944 0.611816 5.19444 1.03122 5.19444 1.54383C5.19444 2.70886 5.38333 3.82728 5.73278 4.87114C5.83667 5.19734 5.76111 5.56083 5.49667 5.82179L3.41889 7.87223Z" fill="#353535"/>
</svg>
